# xmcd
#
# Track frame offsets: 
#        150
#        12903
#        29607
#        45348
#        62297
#        75299
#        92999
#        107972
#        125839
#        138481
#        154080
#        171851
#
# Disc length: 2548 seconds
#
# Revision: 5
# Processed by: cddbd v1.5.2PL0 Copyright (c) Steve Scherf et al.
# Submitted via: ExactAudioCopy v1.3
#
DISCID=9609f20c
DTITLE=Randy Travis - Passing Through
DYEAR=2004
DGENRE=Country
TTITLE0=Pick UpThe Oars And Row
TTITLE1=Four Walls
TTITLE2=That Was Us
TTITLE3=Angels
TTITLE4=Running Blind
TTITLE5=My Daddy Never Was
TTITLE6=A Place To Hang My Hat
TTITLE7=Right On Time
TTITLE8=My Poor Old Heart
TTITLE9=I'm Your Man
TTITLE10=Traiin Long Gone
TTITLE11=I Can See It In Your Eyes
EXTD=
EXTT0=
EXTT1=
EXTT2=
EXTT3=
EXTT4=
EXTT5=
EXTT6=
EXTT7=
EXTT8=
EXTT9=
EXTT10=
EXTT11=
PLAYORDER=
